<?xml version="1.0" encoding="UTF-8" standalone="no"?>
<svg
   xmlns:dc="http://purl.org/dc/elements/1.1/"
   xmlns:cc="http://creativecommons.org/ns#"
   xmlns:rdf="http://www.w3.org/1999/02/22-rdf-syntax-ns#"
   xmlns:svg="http://www.w3.org/2000/svg"
   xmlns="http://www.w3.org/2000/svg"
   viewBox="0 0 258.66666 258.66666"
   height="258.66666"
   width="258.66666"
   xml:space="preserve"
   id="svg2"
   version="1.1"><metadata
     id="metadata8"><rdf:RDF><cc:Work
         rdf:about=""><dc:format>image/svg+xml</dc:format><dc:type
           rdf:resource="http://purl.org/dc/dcmitype/StillImage" /></cc:Work></rdf:RDF></metadata><defs
     id="defs6" /><g
     transform="matrix(1.3333333,0,0,-1.3333333,0,258.66667)"
     id="g10"><g
       transform="scale(0.1)"
       id="g12"><path
         id="path14"
         style="fill:#ffffff;fill-opacity:1;fill-rule:evenodd;stroke:none"
         d="M 2.59766,1933.23 H 1930.16 V 5.66797 H 2.59766 V 1933.23" /><path
         id="path16"
         style="fill:#d22c28;fill-opacity:1;fill-rule:evenodd;stroke:none"
         d="M 1845.12,641.246 87.6367,641.25 v 656.4 H 1845.12 V 641.246" /><path
         id="path18"
         style="fill:#ffffff;fill-opacity:1;fill-rule:evenodd;stroke:none"
         d="m 1395.02,1040.33 c 0,0 16.38,-38.61 -59.73,-59.459 0,0 -53.04,-18.051 -35.56,-56.32 l 97.05,-119.528 h 69.64 l -95.84,119.528 c 0,0 -9.23,15.929 13.49,23.566 0,0 58.22,23.047 70.09,65.383 0,0 12.22,41.24 -13.05,71.11 0,0 -27.02,41.96 -93.94,47.8 -64.61,2.77 -91.92,-1.43 -91.92,-1.43 -13.7,-2.29 -26.4,-9.92 -32.71,-16.15 -6.28,-6.31 -11.42,-13.05 -11.42,-26.99 V 805.023 h 60.15 v 259.757 c 0,0 0,19.29 20.43,19.29 h 46.78 c 0,0 47.59,-1.96 56.54,-43.74" /><path
         id="path20"
         style="fill:#ffffff;fill-opacity:1;fill-rule:evenodd;stroke:none"
         d="M 931.543,1135.47 V 805 h 46.875 v 330.47 h -46.875" /><path
         id="path22"
         style="fill:#ffffff;fill-opacity:1;fill-rule:evenodd;stroke:none"
         d="m 991.91,1135.47 0.067,-114.04 c 0,-170.961 120.303,-216.407 173.163,-216.407 v 47.649 c -75.31,11.445 -149.73,89.992 -149.73,208.338 v 74.46 h -23.5" /><path
         id="path24"
         style="fill:#ffffff;fill-opacity:1;fill-rule:evenodd;stroke:none"
         d="m 1582.88,1133.18 h -61.93 c -1.45,0 -2.61,-1.23 -2.61,-2.59 V 807.586 c 0,-1.363 1.16,-2.563 2.61,-2.563 h 61.93 c 1.39,0 2.57,1.2 2.57,2.563 v 323.004 c 0,1.36 -1.18,2.59 -2.57,2.59" /><path
         id="path26"
         style="fill:#ffffff;fill-opacity:1;fill-rule:evenodd;stroke:none"
         d="m 532.211,1106.19 v -22.98 H 636.422 V 805.027 h 64.773 V 1083.21 H 805.66 v 22.98 c 0,8.04 0.676,14.53 -4.75,19.45 -5.551,5.04 -13.832,7.54 -24.937,7.54 l 0.632,0.09 -214.656,-0.09 c -11.027,0 -19.375,-2.5 -24.859,-7.54 -5.492,-4.92 -4.879,-11.41 -4.879,-19.45" /><path
         id="path28"
         style="fill:#ffffff;fill-opacity:1;fill-rule:evenodd;stroke:none"
         d="m 348.609,883.574 h 129.786 l 31.398,-78.594 h 65.625 l -106.121,267.43 c -3.664,10.34 -6.945,18.69 -9.508,24.83 -2.562,6.23 -5.726,12 -9.414,17.42 -3.684,5.43 -8.492,9.79 -14.574,13.18 -5.973,3.48 -13.305,5.17 -22.231,5.17 -8.941,0 -16.355,-1.69 -22.226,-5.17 -6.035,-3.39 -10.871,-7.75 -14.559,-13.18 -3.793,-5.42 -6.945,-11.19 -9.488,-17.42 -2.524,-6.14 -5.766,-14.49 -9.516,-24.83 L 251.918,804.871 h 65.562 l 31.129,78.703 z m 33.403,50.762 c -16.793,0 -11.098,11.269 -11.098,11.269 l 30.266,83.415 c 0,0 10.23,27.24 21.609,0 l 30.277,-83.415 c 0,0 5.637,-11.269 -11.183,-11.269 h -59.871" /><path
         id="path30"
         style="fill:#ffffff;fill-opacity:1;fill-rule:evenodd;stroke:none"
         d="m 1642.83,1098.47 v 13.69 h 4.83 c 3.3,0 5.53,-0.34 6.8,-1.1 2.29,-1.27 3.2,-3.94 3.2,-7.93 v -2.79 l 0.13,-1.19 c 0.04,-0.13 0.04,-0.17 0.12,-0.25 0,-0.22 0.07,-0.3 0.22,-0.43 h 5.65 l -0.3,0.47 c -0.1,0.21 -0.23,0.85 -0.29,1.78 -0.04,0.93 -0.04,1.74 -0.04,2.54 v 2.59 c 0,1.74 -0.63,3.55 -1.91,5.38 -1.29,1.82 -3.26,2.92 -5.89,3.43 2.1,0.34 3.69,0.84 4.98,1.65 2.26,1.4 3.45,3.78 3.45,6.78 0,4.41 -1.81,7.34 -5.42,8.78 -1.97,0.84 -5.17,1.31 -9.5,1.31 h -12.14 v -34.71 h 6.11 z m 0,17.97 v 12.5 h 5.27 c 3.46,0 5.87,-0.38 7.4,-1.23 1.44,-0.89 2.16,-2.62 2.16,-5.08 0,-2.72 -1.02,-4.45 -3.48,-5.38 -1.23,-0.55 -3.22,-0.81 -5.8,-0.81 h -5.55" /><path
         id="path32"
         style="fill:#ffffff;fill-opacity:1;fill-rule:evenodd;stroke:none"
         d="m 745.121,852.676 v -47.649 c 52.797,0 172.863,45.442 172.863,216.403 l 0.043,114.04 h -23.14 v -74.46 c 0,-118.346 -74.567,-196.893 -149.766,-208.334" /><path
         id="path34"
         style="fill:#ffffff;fill-opacity:1;fill-rule:evenodd;stroke:none"
         d="m 1627.1,1093.39 c 6.21,-6.32 13.65,-9.37 22.42,-9.37 8.71,0 16.17,3.05 22.29,9.37 6.3,6.1 9.33,13.6 9.33,22.37 0,8.69 -3.03,16.11 -9.33,22.26 -6.12,6.14 -13.58,9.19 -22.29,9.19 -8.73,0 -16.17,-3.05 -22.33,-9.19 -6.17,-6.15 -9.33,-13.66 -9.33,-22.26 0,-8.77 3.09,-16.4 9.24,-22.37 z m 22.42,49.62 c 7.55,0 13.86,-2.75 19.16,-8.01 5.36,-5.29 7.99,-11.69 7.99,-19.24 0,-7.54 -2.63,-14.07 -7.99,-19.37 -5.3,-5.33 -11.61,-8.05 -19.16,-8.05 -7.61,0 -14.07,2.72 -19.27,8.05 -5.31,5.3 -7.91,11.83 -7.91,19.37 0,7.55 2.6,13.95 7.91,19.24 5.35,5.26 11.71,8.01 19.27,8.01" /></g></g></svg>