<?xml version="1.0" encoding="UTF-8" standalone="no"?>
<svg
   xmlns:dc="http://purl.org/dc/elements/1.1/"
   xmlns:cc="http://creativecommons.org/ns#"
   xmlns:rdf="http://www.w3.org/1999/02/22-rdf-syntax-ns#"
   xmlns:svg="http://www.w3.org/2000/svg"
   xmlns="http://www.w3.org/2000/svg"
   viewBox="0 0 660 129.33333"
   height="129.33333"
   width="660"
   xml:space="preserve"
   id="svg2"
   version="1.1"><metadata
     id="metadata8"><rdf:RDF><cc:Work
         rdf:about=""><dc:format>image/svg+xml</dc:format><dc:type
           rdf:resource="http://purl.org/dc/dcmitype/StillImage" /></cc:Work></rdf:RDF></metadata><defs
     id="defs6" /><g
     transform="matrix(1.3333333,0,0,-1.3333333,0,129.33333)"
     id="g10"><g
       transform="scale(0.1)"
       id="g12"><path
         id="path14"
         style="fill:#1a3e7e;fill-opacity:1;fill-rule:evenodd;stroke:none"
         d="M 2.00391,969.445 H 971.031 V 0.414063 H 2.00391 V 969.445" /><path
         id="path16"
         style="fill:#0daa4f;fill-opacity:1;fill-rule:evenodd;stroke:none"
         d="M 1119.23,969.445 H 4949.74 V 833.723 h -203.01 v -20.871 h 203.01 V 698.066 h -203.01 v -20.867 h 203.01 V 562.414 h -203.01 v -20.871 h 203.01 V 426.758 h -203.01 v -20.871 h 203.01 V 289.02 h -203.01 v -20.872 h 203.01 V 153.363 h -203.01 v -20.871 h 203.01 V 0.414063 H 1119.23 V 132.492 h 203.34 v 20.871 h -203.34 v 114.785 h 203.34 v 20.872 h -203.34 v 116.867 h 203.34 v 20.871 h -203.34 v 114.785 h 203.34 v 20.871 h -203.34 v 114.785 h 203.34 v 20.867 h -203.34 v 114.786 h 203.34 v 20.871 h -203.34 z m 935.65,-341.855 -196.25,-0.996 c 28.63,98.105 -142.13,119.09 -174.82,20.57 -20.4,-61.508 70.21,-69.43 93.97,-78.707 72.26,-28.219 173.58,-31.019 217.68,-97.68 41.68,-62.992 21.54,-163.179 -23.32,-226.324 -24.4,-34.32 -65.43,-62.871 -108.73,-85.133 -43.36,-22.297 -112.14,-39.019 -189.61,-39.019 -138.87,0 -289.98,18.808 -277.42,218.09 l 1,15.972 200.2,-0.062 c -13.15,-63.418 32.74,-100.258 100.72,-96.508 38.37,2.117 110.54,26.445 113.68,76.27 3.02,47.921 -65.76,70.152 -101.64,80.5 -99.5,28.699 -245.79,45.246 -237.73,175.457 10.51,169.902 156.39,253.601 319.84,253.718 193.02,0.133 298.55,-44.863 262.43,-216.148 z m 697.69,201.613 -25.18,-136.269 h -342.08 l -22.62,-136.993 h 313.75 L 2646.23,416.98 h -313.31 l -28.54,-145.332 h 341.32 l -33.09,-134.05 h -535.52 l 146.7,691.605 z m 794,2.789 -151.83,-694.394 h -265.68 l -119.22,527.023 h -1.98 L 2892.29,137.598 h -171.81 l 146.25,694.394 h 271.26 L 3261.8,329.121 h 1.98 l 105.4,502.871 z m 711.32,-694.394 h -218.96 l -20.59,131.816 h -276.63 l -72.88,-131.816 h -200.51 l 420.98,691.605 h 237.18 z m -253.13,268.957 -32.08,289.035 h -1.92 L 3819.4,406.555 Z M 4673.08,829.203 4526.13,137.598 H 4328.2 l 146.95,691.605 h 197.93" /><path
         id="path18"
         style="fill:#0daa4f;fill-opacity:1;fill-rule:evenodd;stroke:none"
         d="M 141,153.363 H 838.055 V 132.492 H 141 Z m 0,135.657 H 838.055 V 268.148 H 141 Z m 0,137.738 H 838.055 V 405.887 H 141 Z m 0,135.656 H 838.055 V 541.543 H 141 Z m 0,135.652 H 838.055 V 677.199 H 141 Z m 0,135.657 H 838.055 V 812.852 H 141 v 20.871" /><path
         id="path20"
         style="fill:#ffffff;fill-opacity:1;fill-rule:evenodd;stroke:none"
         d="m 668.594,388.035 h 27.008 l -14.536,-82.512 h -27.007 z m -71.531,-54.363 h 17.054 l -3.32,29.527 z m 4.464,54.363 h 27.578 l 14.997,-82.512 h -26.895 l -1.375,10.985 h -27.008 l -4.922,-10.985 h -26.324 z m -118.218,0 h 25.519 l 21.399,-44.976 2.289,18.312 4.695,26.664 h 25.75 l -14.535,-82.512 h -25.293 l -21.516,44.973 -2.172,-18.769 -4.695,-26.204 h -25.977 z m -81.829,0 h 67.293 l -3.546,-19.226 h -40.059 l -2.176,-11.903 h 34.106 l -3.547,-19.226 h -33.988 l -2.176,-12.934 h 41.773 l -3.32,-19.223 h -68.899 z m -43.605,-23.918 c 0.23,4.731 -3.125,7.094 -10.07,7.094 -5.34,0 -8.313,-1.488 -8.926,-4.461 -0.383,-1.836 0.25,-3.359 1.891,-4.578 1.636,-1.227 3.964,-2.234 6.976,-3.031 3.016,-0.805 5.934,-1.551 8.758,-2.235 7.781,-1.91 13.715,-4.484 17.797,-7.726 4.082,-3.242 6.117,-7.492 6.117,-12.758 0,-0.309 -0.113,-1.945 -0.34,-4.922 -1.906,-9.922 -6.902,-17.109 -14.992,-21.574 -8.09,-4.465 -17.547,-6.692 -28.383,-6.692 -10.07,0 -18.117,2.575 -24.144,7.723 -6.032,5.148 -8.586,11.844 -7.672,20.086 h 25.98 c 0,-3.203 1.145,-5.477 3.434,-6.813 2.285,-1.332 4.847,-2 7.668,-2 6.715,0.305 10.531,2.172 11.441,5.61 0.692,2.363 -0.187,4.176 -2.629,5.433 -2.441,1.258 -6.332,2.575 -11.672,3.95 -8.699,2.136 -15.355,4.726 -19.972,7.781 -4.617,3.051 -6.961,7.781 -7.039,14.187 0.152,0.997 0.289,2.086 0.402,3.266 0.113,1.18 0.207,2.078 0.285,2.688 0.914,4.808 3.11,9.101 6.578,12.875 3.473,3.777 8.071,6.753 13.793,8.925 5.723,2.18 12.321,3.266 19.797,3.266 9.313,0 16.824,-2.043 22.547,-6.125 5.723,-4.082 8.43,-10.738 8.125,-19.969 z M 544.309,252.508 h 27.007 l -11.101,-63.285 h 37.082 l -3.324,-19.227 h -64.2 z m -82.743,0 h 67.289 l -3.546,-19.223 h -40.055 l -2.176,-11.902 h 34.106 l -3.547,-19.231 h -33.992 l -2.172,-12.929 h 41.769 l -3.316,-19.227 h -68.899 z m -44.289,0 h 27.004 L 429.75,169.996 h -27.012 z m 200.614,271.121 h 27.011 l -14.535,-82.516 h -27.012 z m -43.832,-23.922 c 0.23,4.734 -3.125,7.098 -10.071,7.098 -5.34,0 -8.312,-1.489 -8.925,-4.461 -0.379,-1.836 0.25,-3.36 1.89,-4.578 1.641,-1.223 3.965,-2.235 6.981,-3.036 3.011,-0.8 5.929,-1.546 8.754,-2.234 7.781,-1.906 13.714,-4.476 17.796,-7.723 4.082,-3.242 6.121,-7.496 6.121,-12.757 0,-0.309 -0.113,-1.946 -0.343,-4.926 -1.907,-9.918 -6.903,-17.106 -14.989,-21.57 -8.093,-4.465 -17.546,-6.692 -28.386,-6.692 -10.071,0 -18.117,2.574 -24.145,7.719 -6.027,5.152 -8.586,11.848 -7.672,20.086 h 25.985 c 0,-3.203 1.14,-5.473 3.429,-6.809 2.289,-1.332 4.848,-2 7.668,-2 6.715,0.305 10.532,2.172 11.446,5.606 0.687,2.367 -0.188,4.179 -2.633,5.437 -2.442,1.258 -6.332,2.574 -11.672,3.946 -8.699,2.136 -15.352,4.73 -19.973,7.781 -4.613,3.054 -6.961,7.785 -7.035,14.191 0.149,0.996 0.285,2.082 0.399,3.262 0.113,1.183 0.211,2.082 0.285,2.691 0.918,4.809 3.109,9.098 6.578,12.875 3.473,3.774 8.07,6.75 13.797,8.926 5.719,2.176 12.316,3.262 19.797,3.262 9.308,0 16.824,-2.039 22.547,-6.121 5.718,-4.082 8.429,-10.739 8.121,-19.973 z M 452.18,523.629 h 67.289 l -3.543,-19.231 h -40.059 l -2.172,-11.902 h 34.102 l -3.547,-19.223 h -33.992 l -2.172,-12.933 h 41.773 l -3.32,-19.227 h -68.894 z m -43.602,-23.922 c 0.227,4.734 -3.133,7.098 -10.074,7.098 -5.344,0 -8.316,-1.489 -8.926,-4.461 -0.383,-1.836 0.246,-3.36 1.887,-4.578 1.644,-1.223 3.969,-2.235 6.984,-3.036 3.012,-0.8 5.93,-1.546 8.754,-2.234 7.781,-1.906 13.711,-4.476 17.793,-7.723 4.082,-3.242 6.125,-7.496 6.125,-12.757 0,-0.309 -0.117,-1.946 -0.344,-4.926 -1.906,-9.918 -6.906,-17.106 -14.992,-21.57 -8.086,-4.465 -17.547,-6.692 -28.383,-6.692 -10.07,0 -18.121,2.574 -24.144,7.719 -6.031,5.152 -8.59,11.848 -7.672,20.086 h 25.98 c 0,-3.203 1.145,-5.473 3.43,-6.809 2.293,-1.332 4.848,-2 7.668,-2 6.715,0.305 10.531,2.172 11.449,5.606 0.684,2.367 -0.191,4.179 -2.633,5.437 -2.441,1.258 -6.335,2.574 -11.675,3.946 -8.7,2.136 -15.352,4.73 -19.969,7.781 -4.617,3.054 -6.961,7.785 -7.035,14.191 0.148,0.996 0.281,2.082 0.394,3.262 0.118,1.183 0.211,2.082 0.289,2.691 0.914,4.809 3.11,9.098 6.582,12.875 3.469,3.774 8.067,6.75 13.789,8.926 5.723,2.176 12.321,3.262 19.797,3.262 9.309,0 16.828,-2.039 22.547,-6.121 5.719,-4.082 8.43,-10.739 8.129,-19.973 z m 194.094,142.266 -3.43,-18.309 h 11.672 c 3.508,0 6.43,1.008 8.754,3.027 2.324,2.024 3.492,4.715 3.492,8.071 0,4.808 -4.16,7.211 -12.476,7.211 z m -23.688,19.226 h 39.485 c 6.867,0 12.605,-0.859 17.222,-2.574 4.614,-1.719 8.051,-4.219 10.297,-7.496 2.254,-3.281 3.379,-7.328 3.379,-12.133 0,-2.137 -0.23,-4.426 -0.687,-6.867 -3.66,-18.461 -16.633,-27.695 -38.91,-27.695 h -13.848 l -4.465,-25.75 h -27.008 z m -80.566,0 h 67.289 L 562.16,641.973 H 522.105 L 519.93,630.07 h 34.105 l -3.547,-19.226 h -33.992 l -2.172,-12.93 h 41.774 l -3.325,-19.23 h -68.894 z m -44.293,0 h 27.012 L 466.602,578.684 H 439.59 Z m -43.719,-31.586 c 0.383,5.34 -0.777,8.946 -3.488,10.813 -2.711,1.871 -5.668,2.804 -8.871,2.804 -5.34,0 -9.629,-2.289 -12.875,-6.867 -3.242,-4.578 -5.434,-10.261 -6.578,-17.05 -0.309,-1.833 -0.614,-4.657 -0.914,-8.469 0.226,-9.539 4.574,-14.305 13.043,-14.305 7.781,0 13.277,4.691 16.48,14.074 h 25.977 c -1.828,-6.406 -4.879,-12.265 -9.153,-17.566 -4.269,-5.301 -9.48,-9.402 -15.621,-12.305 -6.144,-2.894 -12.953,-4.344 -20.429,-4.344 -11.676,0 -20.77,2.915 -27.297,8.754 -6.524,5.836 -9.86,13.981 -10.012,24.434 0.305,4.121 0.609,7.359 0.918,9.727 1.75,9.996 5.281,18.308 10.586,24.945 5.301,6.64 11.426,11.523 18.367,14.652 6.941,3.129 13.695,4.617 20.254,4.465 9.844,-0.23 17.434,-2.043 22.777,-5.437 5.34,-3.395 8.793,-7.497 10.356,-12.301 1.566,-4.809 2.269,-10.149 2.117,-16.024 z M 596.434,777.531 593,759.223 h 11.676 c 3.508,0 6.426,1.007 8.754,3.031 2.328,2.019 3.492,4.711 3.492,8.066 0,4.809 -4.16,7.211 -12.477,7.211 z m -23.688,19.227 h 39.484 c 6.868,0 12.606,-0.86 17.223,-2.574 4.613,-1.715 8.051,-4.215 10.297,-7.5 2.254,-3.274 3.375,-7.325 3.375,-12.129 0,-2.133 -0.227,-4.426 -0.684,-6.867 -3.66,-18.461 -16.632,-27.696 -38.914,-27.696 h -13.843 l -4.465,-25.75 h -27.008 z m -80.566,0 h 67.289 l -3.543,-19.227 h -40.063 l -2.172,-11.902 h 34.102 l -3.543,-19.227 h -33.992 l -2.176,-12.929 h 41.777 l -3.324,-19.231 h -68.89 z m -44.293,0 h 27.008 l -14.532,-82.516 h -27.011 z m -76.907,0 h 64.204 l -3.434,-19.227 h -37.082 l -2.629,-14.992 h 29.527 l -3.433,-19.226 h -29.528 l -5.035,-29.071 h -27.125 l 14.535,82.516" /><path
         id="path22"
         style="fill:none;stroke:#1a3e7e;stroke-width:0.28349999;stroke-linecap:butt;stroke-linejoin:miter;stroke-miterlimit:22.92560005;stroke-dasharray:none;stroke-opacity:1"
         d="m 668.594,388.035 h 27.008 l -14.536,-82.512 h -27.007 z m -71.531,-54.363 h 17.054 l -3.32,29.527 z m 4.464,54.363 h 27.578 l 14.997,-82.512 h -26.895 l -1.375,10.985 h -27.008 l -4.922,-10.985 h -26.324 z m -118.218,0 h 25.519 l 21.399,-44.976 2.289,18.312 4.695,26.664 h 25.75 l -14.535,-82.512 h -25.293 l -21.516,44.973 -2.172,-18.769 -4.695,-26.204 h -25.977 z m -81.829,0 h 67.293 l -3.546,-19.226 h -40.059 l -2.176,-11.903 h 34.106 l -3.547,-19.226 h -33.988 l -2.176,-12.934 h 41.773 l -3.32,-19.223 h -68.899 z m -43.605,-23.918 c 0.23,4.731 -3.125,7.094 -10.07,7.094 -5.34,0 -8.313,-1.488 -8.926,-4.461 -0.383,-1.836 0.25,-3.359 1.891,-4.578 1.636,-1.227 3.964,-2.234 6.976,-3.031 3.016,-0.805 5.934,-1.551 8.758,-2.235 7.781,-1.91 13.715,-4.484 17.797,-7.726 4.082,-3.242 6.117,-7.492 6.117,-12.758 0,-0.309 -0.113,-1.945 -0.34,-4.922 -1.906,-9.922 -6.902,-17.109 -14.992,-21.574 -8.09,-4.465 -17.547,-6.692 -28.383,-6.692 -10.07,0 -18.117,2.575 -24.144,7.723 -6.032,5.148 -8.586,11.844 -7.672,20.086 h 25.98 c 0,-3.203 1.145,-5.477 3.434,-6.813 2.285,-1.332 4.847,-2 7.668,-2 6.715,0.305 10.531,2.172 11.441,5.61 0.692,2.363 -0.187,4.176 -2.629,5.433 -2.441,1.258 -6.332,2.575 -11.672,3.95 -8.699,2.136 -15.355,4.726 -19.972,7.781 -4.617,3.051 -6.961,7.781 -7.039,14.187 0.152,0.997 0.289,2.086 0.402,3.266 0.113,1.18 0.207,2.078 0.285,2.688 0.914,4.808 3.11,9.101 6.578,12.875 3.473,3.777 8.071,6.753 13.793,8.925 5.723,2.18 12.321,3.266 19.797,3.266 9.313,0 16.824,-2.043 22.547,-6.125 5.723,-4.082 8.43,-10.738 8.125,-19.969 z M 544.309,252.508 h 27.007 l -11.101,-63.285 h 37.082 l -3.324,-19.227 h -64.2 z m -82.743,0 h 67.289 l -3.546,-19.223 h -40.055 l -2.176,-11.902 h 34.106 l -3.547,-19.231 h -33.992 l -2.172,-12.929 h 41.769 l -3.316,-19.227 h -68.899 z m -44.289,0 h 27.004 L 429.75,169.996 h -27.012 z m 200.614,271.121 h 27.011 l -14.535,-82.516 h -27.012 z m -43.832,-23.922 c 0.23,4.734 -3.125,7.098 -10.071,7.098 -5.34,0 -8.312,-1.489 -8.925,-4.461 -0.379,-1.836 0.25,-3.36 1.89,-4.578 1.641,-1.223 3.965,-2.235 6.981,-3.036 3.011,-0.8 5.929,-1.546 8.754,-2.234 7.781,-1.906 13.714,-4.476 17.796,-7.723 4.082,-3.242 6.121,-7.496 6.121,-12.757 0,-0.309 -0.113,-1.946 -0.343,-4.926 -1.907,-9.918 -6.903,-17.106 -14.989,-21.57 -8.093,-4.465 -17.546,-6.692 -28.386,-6.692 -10.071,0 -18.117,2.574 -24.145,7.719 -6.027,5.152 -8.586,11.848 -7.672,20.086 h 25.985 c 0,-3.203 1.14,-5.473 3.429,-6.809 2.289,-1.332 4.848,-2 7.668,-2 6.715,0.305 10.532,2.172 11.446,5.606 0.687,2.367 -0.188,4.179 -2.633,5.437 -2.442,1.258 -6.332,2.574 -11.672,3.946 -8.699,2.136 -15.352,4.73 -19.973,7.781 -4.613,3.054 -6.961,7.785 -7.035,14.191 0.149,0.996 0.285,2.082 0.399,3.262 0.113,1.183 0.211,2.082 0.285,2.691 0.918,4.809 3.109,9.098 6.578,12.875 3.473,3.774 8.07,6.75 13.797,8.926 5.719,2.176 12.316,3.262 19.797,3.262 9.308,0 16.824,-2.039 22.547,-6.121 5.718,-4.082 8.429,-10.739 8.121,-19.973 z M 452.18,523.629 h 67.289 l -3.543,-19.231 h -40.059 l -2.172,-11.902 h 34.102 l -3.547,-19.223 h -33.992 l -2.172,-12.933 h 41.773 l -3.32,-19.227 h -68.894 z m -43.602,-23.922 c 0.227,4.734 -3.133,7.098 -10.074,7.098 -5.344,0 -8.316,-1.489 -8.926,-4.461 -0.383,-1.836 0.246,-3.36 1.887,-4.578 1.644,-1.223 3.969,-2.235 6.984,-3.036 3.012,-0.8 5.93,-1.546 8.754,-2.234 7.781,-1.906 13.711,-4.476 17.793,-7.723 4.082,-3.242 6.125,-7.496 6.125,-12.757 0,-0.309 -0.117,-1.946 -0.344,-4.926 -1.906,-9.918 -6.906,-17.106 -14.992,-21.57 -8.086,-4.465 -17.547,-6.692 -28.383,-6.692 -10.07,0 -18.121,2.574 -24.144,7.719 -6.031,5.152 -8.59,11.848 -7.672,20.086 h 25.98 c 0,-3.203 1.145,-5.473 3.43,-6.809 2.293,-1.332 4.848,-2 7.668,-2 6.715,0.305 10.531,2.172 11.449,5.606 0.684,2.367 -0.191,4.179 -2.633,5.437 -2.441,1.258 -6.335,2.574 -11.675,3.946 -8.7,2.136 -15.352,4.73 -19.969,7.781 -4.617,3.054 -6.961,7.785 -7.035,14.191 0.148,0.996 0.281,2.082 0.394,3.262 0.118,1.183 0.211,2.082 0.289,2.691 0.914,4.809 3.11,9.098 6.582,12.875 3.469,3.774 8.067,6.75 13.789,8.926 5.723,2.176 12.321,3.262 19.797,3.262 9.309,0 16.828,-2.039 22.547,-6.121 5.719,-4.082 8.43,-10.739 8.129,-19.973 z m 194.094,142.266 -3.43,-18.309 h 11.672 c 3.508,0 6.43,1.008 8.754,3.027 2.324,2.024 3.492,4.715 3.492,8.071 0,4.808 -4.16,7.211 -12.476,7.211 z m -23.688,19.226 h 39.485 c 6.867,0 12.605,-0.859 17.222,-2.574 4.614,-1.719 8.051,-4.219 10.297,-7.496 2.254,-3.281 3.379,-7.328 3.379,-12.133 0,-2.137 -0.23,-4.426 -0.687,-6.867 -3.66,-18.461 -16.633,-27.695 -38.91,-27.695 h -13.848 l -4.465,-25.75 h -27.008 z m -80.566,0 h 67.289 L 562.16,641.973 H 522.105 L 519.93,630.07 h 34.105 l -3.547,-19.226 h -33.992 l -2.172,-12.93 h 41.774 l -3.325,-19.23 h -68.894 z m -44.293,0 h 27.012 L 466.602,578.684 H 439.59 Z m -43.719,-31.586 c 0.383,5.34 -0.777,8.946 -3.488,10.813 -2.711,1.871 -5.668,2.804 -8.871,2.804 -5.34,0 -9.629,-2.289 -12.875,-6.867 -3.242,-4.578 -5.434,-10.261 -6.578,-17.05 -0.309,-1.833 -0.614,-4.657 -0.914,-8.469 0.226,-9.539 4.574,-14.305 13.043,-14.305 7.781,0 13.277,4.691 16.48,14.074 h 25.977 c -1.828,-6.406 -4.879,-12.265 -9.153,-17.566 -4.269,-5.301 -9.48,-9.402 -15.621,-12.305 -6.144,-2.894 -12.953,-4.344 -20.429,-4.344 -11.676,0 -20.77,2.915 -27.297,8.754 -6.524,5.836 -9.86,13.981 -10.012,24.434 0.305,4.121 0.609,7.359 0.918,9.727 1.75,9.996 5.281,18.308 10.586,24.945 5.301,6.64 11.426,11.523 18.367,14.652 6.941,3.129 13.695,4.617 20.254,4.465 9.844,-0.23 17.434,-2.043 22.777,-5.437 5.34,-3.395 8.793,-7.497 10.356,-12.301 1.566,-4.809 2.269,-10.149 2.117,-16.024 z M 596.434,777.531 593,759.223 h 11.676 c 3.508,0 6.426,1.007 8.754,3.031 2.328,2.019 3.492,4.711 3.492,8.066 0,4.809 -4.16,7.211 -12.477,7.211 z m -23.688,19.227 h 39.484 c 6.868,0 12.606,-0.86 17.223,-2.574 4.613,-1.715 8.051,-4.215 10.297,-7.5 2.254,-3.274 3.375,-7.325 3.375,-12.129 0,-2.133 -0.227,-4.426 -0.684,-6.867 -3.66,-18.461 -16.632,-27.696 -38.914,-27.696 h -13.843 l -4.465,-25.75 h -27.008 z m -80.566,0 h 67.289 l -3.543,-19.227 h -40.063 l -2.172,-11.902 h 34.102 l -3.543,-19.227 h -33.992 l -2.176,-12.929 h 41.777 l -3.324,-19.231 h -68.89 z m -44.293,0 h 27.008 l -14.532,-82.516 h -27.011 z m -76.907,0 h 64.204 l -3.434,-19.227 h -37.082 l -2.629,-14.992 h 29.527 l -3.433,-19.226 h -29.528 l -5.035,-29.071 h -27.125 z" /></g></g></svg>