<?xml version="1.0" encoding="UTF-8" standalone="no"?>
<svg
   xmlns:dc="http://purl.org/dc/elements/1.1/"
   xmlns:cc="http://creativecommons.org/ns#"
   xmlns:rdf="http://www.w3.org/1999/02/22-rdf-syntax-ns#"
   xmlns:svg="http://www.w3.org/2000/svg"
   xmlns="http://www.w3.org/2000/svg"
   viewBox="0 0 670.38666 82.68"
   height="82.68"
   width="670.38666"
   xml:space="preserve"
   id="svg2"
   version="1.1"><metadata
     id="metadata8"><rdf:RDF><cc:Work
         rdf:about=""><dc:format>image/svg+xml</dc:format><dc:type
           rdf:resource="http://purl.org/dc/dcmitype/StillImage" /></cc:Work></rdf:RDF></metadata><defs
     id="defs6" /><g
     transform="matrix(1.3333333,0,0,-1.3333333,0,82.68)"
     id="g10"><g
       transform="scale(0.1)"
       id="g12"><path
         id="path14"
         style="fill:#234f8c;fill-opacity:1;fill-rule:nonzero;stroke:none"
         d="m 1172.06,251.699 c 0,-25.777 -16.68,-30.324 -54.58,-30.324 H 861.23 l -12.128,10.613 v 80.36 l 10.613,10.613 h 257.765 c 36.39,0 54.58,-4.547 54.58,-30.324 v -40.938 z m 0,139.492 H 747.512 L 732.348,379.063 V 1.51563 H 849.102 V 144.043 l 10.613,10.613 h 312.345 c 78.85,0 115.24,21.231 115.24,75.817 v 86.425 c 0,53.067 -36.39,74.293 -115.24,74.293" /><path
         id="path16"
         style="fill:#234f8c;fill-opacity:1;fill-rule:nonzero;stroke:none"
         d="m 1502.6,319.93 101.59,-148.594 -6.06,-13.645 h -224.41 l -57.61,-71.2652 h 333.57 l 24.26,-13.6445 51.55,-71.26567 h 134.95 L 1564.77,395.742" /><path
         id="path18"
         style="fill:#234f8c;fill-opacity:1;fill-rule:nonzero;stroke:none"
         d="M 2841.45,77.3281 V 183.469 l 12.13,10.609 h 225.93 v 66.719 H 2721.67 V 1.51563 h 527.66 V 68.2305 H 2855.1" /><path
         id="path20"
         style="fill:#234f8c;fill-opacity:1;fill-rule:nonzero;stroke:none"
         d="m 2721.67,391.191 h 532.2 v -72.777 h -532.2 v 72.777" /><path
         id="path22"
         style="fill:#234f8c;fill-opacity:1;fill-rule:nonzero;stroke:none"
         d="m 2128.82,321.445 h 429.09 c -6.06,54.586 -40.93,69.746 -125.84,69.746 h -307.8 c -97.04,0 -127.37,-18.191 -127.37,-92.488 V 92.4922 C 1996.9,19.7109 2027.23,0 2124.27,0 h 307.8 c 86.42,0 119.78,16.6797 122.81,72.7813 h -426.06 l -12.13,12.1289 V 312.348" /><path
         id="path24"
         style="fill:#234f8c;fill-opacity:1;fill-rule:nonzero;stroke:none"
         d="M 444.262,239.566 H 133.43 l -9.098,10.618 v 66.714 l 9.098,7.579 h 420.004 l 6.062,13.648 c -13.644,36.391 -51.551,54.586 -119.781,54.586 H 147.074 c -97.0388,0 -127.3631,-18.195 -127.3631,-92.492 v -43.973 c 0,-72.777 30.3243,-92.492 127.3631,-92.492 h 310.832 l 9.098,-9.098 V 84.9102 L 459.426,74.2969 H 103.105 v 0 H 10.6133 C 10.6133,74.2969 0,68.2305 0,66.7148 7.58203,15.1641 42.4531,1.51563 125.848,1.51563 h 318.414 c 97.039,0 128.883,18.19527 128.883,92.49217 v 53.0702 c 0,72.777 -31.844,92.488 -128.883,92.488" /><path
         id="path26"
         style="fill:#234f8c;fill-opacity:1;fill-rule:nonzero;stroke:none"
         d="m 3588.97,392.711 h -175.89 l -9.1,-18.195 194.08,-142.528 c 36.39,21.227 77.33,42.453 119.79,63.68" /><path
         id="path28"
         style="fill:#234f8c;fill-opacity:1;fill-rule:nonzero;stroke:none"
         d="M 3746.66,125.848 3917.99,1.51563 h 175.89 l 7.58,16.67967 -254.73,186.4997 c -33.36,-25.777 -68.23,-51.554 -100.07,-78.847" /><path
         id="path30"
         style="fill:#a5a6a9;fill-opacity:1;fill-rule:nonzero;stroke:none"
         d="m 3563.19,1.51563 h -159.21 l -13.64,21.22657 c 107.65,104.6248 589.82,550.4028 1637.55,597.4058 0,0 -877.91,-30.328 -1464.7,-618.63237" /></g></g></svg>