<?xml version="1.0" encoding="UTF-8" standalone="no"?>
<svg
   xmlns:dc="http://purl.org/dc/elements/1.1/"
   xmlns:cc="http://creativecommons.org/ns#"
   xmlns:rdf="http://www.w3.org/1999/02/22-rdf-syntax-ns#"
   xmlns:svg="http://www.w3.org/2000/svg"
   xmlns="http://www.w3.org/2000/svg"
   viewBox="0 0 841.88977 595.27557"
   id="svg51"
   height="595.27557"
   width="841.88977"
   version="1.1">
  <metadata
     id="metadata57">
    <rdf:RDF>
      <cc:Work
         rdf:about="">
        <dc:format>image/svg+xml</dc:format>
        <dc:type
           rdf:resource="http://purl.org/dc/dcmitype/StillImage" />
      </cc:Work>
    </rdf:RDF>
  </metadata>
  <defs
     id="defs55" />
  <g
     id="Layer1000">
    <path
       id="path2"
       style="fill:#dc2d35;fill-rule:evenodd"
       d="m 727.6726,191.2804 c -34.1897,0 -67.5252,2.9591 -100.0787,8.6919 l 4.4803,24.2563 c 26.9189,-4.7434 53.8878,-7.4597 82.0018,-8.1453 v 91.5535 h 26.7206 v -91.5665 c 28.0399,0.6615 55.2646,3.4019 82.1131,8.0916 l 4.4636,-24.26 c -32.3961,-5.6717 -65.6667,-8.6215 -99.7007,-8.6215 z" />
    <path
       id="path4"
       style="fill:#dc2d35;fill-rule:evenodd"
       d="M 280.6796,195.5606 H 253.9015 V 307.874 h 26.7781 z" />
    <path
       id="path6"
       style="fill:#dc2d35;fill-rule:evenodd"
       d="m 14.5164,200.2077 4.4766,24.2544 c 26.9244,-4.7397 53.8878,-7.4635 82.0129,-8.1453 v 91.5572 h 26.7281 v -91.5647 c 28.0288,0.6578 55.2664,3.3964 82.0908,8.0861 l 4.4747,-24.2581 c -32.3961,-5.681 -65.6667,-8.6234 -99.697,-8.6234 -34.1952,0 -67.5363,2.9739 -100.0861,8.6938 z" />
    <path
       id="path8"
       style="fill:#dc2d35;fill-rule:evenodd"
       d="m 561.2305,307.874 h 26.7651 V 195.5606 h -26.7651 z" />
    <path
       id="path10"
       style="fill:#dc2d35;fill-rule:evenodd"
       d="M 420.9995,275.5743 C 390.8065,248.2904 363.7802,216.893 344.9992,190.971 l -20.784,15.1567 c 22.1385,32.2497 63.3877,75.8872 96.7973,103.6455 l 0.2427,-0.2205 c 33.3225,-27.7101 74.4494,-71.2291 96.5563,-103.425 L 497.0146,190.971 c -18.781,25.922 -45.7962,57.3194 -76.0151,84.6033 z" />
    <path
       id="path12"
       style="fill:#dc2d35;fill-rule:evenodd"
       d="m 128.0138,361.9323 h 9.6721 c 3.2611,0 13.2445,0.1149 13.2445,11.5398 0,8.4048 -5.5661,11.5454 -13.2445,11.5454 h -4.9546 v 18.6198 h -4.7175 z m 4.7175,19.1552 h 5.075 c 5.9238,0 8.4066,-2.7793 8.4066,-7.5542 0,-7.6784 -6.172,-7.6784 -9.5554,-7.6784 h -3.9262 z" />
    <path
       id="path14"
       style="fill:#dc2d35;fill-rule:evenodd"
       d="m 178.0735,403.4557 c -1.7491,0.5485 -3.9263,0.8486 -6.5889,0.8486 -8.8846,0 -14.0227,-5.3845 -14.0227,-16.0201 0,-8.5845 3.5668,-14.0839 11.2397,-14.0839 6.7741,0 10.0352,4.6508 10.0352,10.9414 v 1.3915 h -16.5574 v 1.6917 c 0,4.3469 1.927,12.633 10.2131,12.633 3.2037,0 4.3525,-0.4891 5.681,-0.7856 z m -4.0467,-20.3726 c 0,-1.9344 -1.3285,-5.4383 -5.5031,-5.4383 -4.2895,0 -5.681,3.5039 -6.0516,5.4383 z" />
    <path
       id="path16"
       style="fill:#dc2d35;fill-rule:evenodd"
       d="m 191.0697,374.8599 h 4.1172 v 5.568 h 0.1148 c 0.8505,-1.9381 3.0203,-6.2276 9.6203,-6.2276 v 4.4081 c -6.537,0 -9.7351,5.3882 -9.7351,13.124 v 11.9049 h -4.1172 z" />
    <path
       id="path18"
       style="fill:#dc2d35;fill-rule:evenodd"
       d="m 216.636,378.3082 h -4.8323 v -3.4483 h 4.8323 v -3.9855 c 0,-4.7138 2.2402,-9.1311 9.435,-9.1311 2.0548,0 3.5668,0.2427 4.8953,0.5429 v 3.6891 c -1.0858,-0.3613 -2.4125,-0.7856 -4.169,-0.7856 -4.7805,0 -6.0442,2.6626 -6.0442,6.5277 v 3.1425 h 8.2788 v 3.4483 h -8.2788 v 25.3291 h -4.1171 z" />
    <path
       id="path20"
       style="fill:#dc2d35;fill-rule:evenodd"
       d="m 236.7752,389.3125 c 0,-8.4029 3.2685,-15.1122 11.7195,-15.1122 8.5289,0 11.8475,6.7093 11.8475,15.1122 0,8.4011 -3.3186,14.9918 -11.8475,14.9918 -8.451,0 -11.7195,-6.5907 -11.7195,-14.9918 z m 11.7195,11.5454 c 4.7175,0 7.1374,-4.3506 7.1374,-11.6121 0,-7.1911 -2.4199,-11.601 -7.1374,-11.601 -4.647,0 -7.0095,4.4099 -7.0095,11.601 0,7.2615 2.3625,11.6121 7.0095,11.6121 z" />
    <path
       id="path22"
       style="fill:#dc2d35;fill-rule:evenodd"
       d="m 272.738,374.8599 h 4.1116 v 5.568 h 0.1223 c 0.8486,-1.9381 3.0258,-6.2276 9.6128,-6.2276 v 4.4081 c -6.5296,0 -9.7351,5.3882 -9.7351,13.124 v 11.9049 h -4.1116 z" />
    <path
       id="path24"
       style="fill:#dc2d35;fill-rule:evenodd"
       d="m 296.5552,374.8599 h 4.1171 v 6.6556 h 0.1149 c 0.6652,-2.3587 2.2995,-7.3152 8.0434,-7.3152 4.8324,0 6.9447,2.7775 7.2523,6.5908 h 0.1278 c 0.7152,-2.1827 3.0128,-6.5908 8.1583,-6.5908 4.8954,0 7.3727,4.1079 7.3727,8.8828 v 20.5542 h -4.106 v -15.959 c 0,-5.0195 0,-9.3701 -4.2376,-9.3701 -4.8323,0 -7.1874,8.3399 -7.1874,13.4817 v 11.8474 h -4.1171 v -15.959 c 0,-4.9565 0,-9.3701 -4.232,-9.3701 -4.7749,0 -7.1893,8.2824 -7.1893,13.4817 v 11.8474 h -4.1171 z" />
    <path
       id="path26"
       style="fill:#dc2d35;fill-rule:evenodd"
       d="m 360.6395,399.8296 h -0.1223 c -0.7208,1.3915 -3.5687,4.4747 -8.8272,4.4747 -4.7119,0 -7.7377,-2.9016 -7.7377,-8.0397 0,-6.7093 8.7068,-8.9458 13.7244,-8.9458 1.021,0 1.877,0 2.8405,-0.1816 0,-1.3896 0,-4.5359 -0.1853,-5.5031 -0.6633,-3.2055 -3.0758,-3.9893 -5.2585,-3.9893 -4.6489,0 -5.555,2.3514 -5.8607,4.5952 h -4.5971 c 0.0649,-3.6316 2.4774,-8.0397 10.3429,-8.0397 8.9477,0 9.6703,5.618 9.6703,9.246 v 20.191 h -3.9893 z m -2.5422,-9.246 c -3.0239,0 -9.4275,1.2063 -9.4275,6.1053 0,2.7164 1.9344,4.169 4.0541,4.169 2.5922,0 5.4883,-1.6917 6.7075,-4.4729 0.7226,-1.6935 1.0858,-2.355 1.0858,-5.8014 z" />
    <path
       id="path28"
       style="fill:#dc2d35;fill-rule:evenodd"
       d="m 379.074,374.8599 h 4.1116 v 6.6556 h 0.1278 c 0.7782,-2.3587 2.5904,-7.3152 8.9995,-7.3152 4.8954,0 7.3801,4.1079 7.3801,8.8828 v 20.5542 h -4.1116 v -15.959 c 0,-4.9565 0,-9.3701 -4.232,-9.3701 -5.4456,0 -8.1638,8.2824 -8.1638,13.4817 v 11.8474 h -4.1116 z" />
    <path
       id="path30"
       style="fill:#dc2d35;fill-rule:evenodd"
       d="m 432.8803,403.5187 c -1.8066,0.5429 -3.326,0.7856 -5.9812,0.7856 -9.1922,0 -14.8176,-5.3196 -14.8176,-15.7162 0,-8.6494 3.4482,-14.3878 11.727,-14.3878 7.6858,0 9.8574,4.8324 9.8574,9.4276 h -4.8972 c 0,-3.0796 -1.2711,-5.9831 -5.1381,-5.9831 -5.1974,0 -6.8316,5.681 -6.8316,10.0335 0,5.4994 1.8714,13.1796 11.4212,13.1796 1.034,0 3.0833,-0.0611 4.6601,-0.604 z" />
    <path
       id="path32"
       style="fill:#dc2d35;fill-rule:evenodd"
       d="m 463.4049,403.4557 c -1.7547,0.5485 -3.9263,0.8486 -6.587,0.8486 -8.8921,0 -14.0246,-5.3845 -14.0246,-16.0201 0,-8.5845 3.5612,-14.0839 11.2471,-14.0839 6.7667,0 10.0353,4.6508 10.0353,10.9414 v 1.3915 h -16.5705 v 1.6917 c 0,4.3469 1.94,12.633 10.2187,12.633 3.2111,0 4.3599,-0.4891 5.681,-0.7856 z m -4.0523,-20.3726 c 0,-1.9344 -1.3285,-5.4383 -5.4975,-5.4383 -4.295,0 -5.681,3.5039 -6.0442,5.4383 z" />
    <path
       id="path34"
       style="fill:#dc2d35;fill-rule:evenodd"
       d="m 532.505,401.827 c -1.7602,0.7226 -4.8379,2.4773 -11.0692,2.4773 -12.6312,0 -16.0201,-12.1513 -16.0201,-22.307 0,-10.7598 3.7521,-20.7358 15.7218,-20.7358 8.3417,0 12.9388,5.2623 12.9388,12.0327 h -5.3234 c 0,-4.66 -2.7201,-8.1045 -7.6154,-8.1045 -8.8291,0 -10.5782,9.0718 -10.5782,17.0503 0,6.9484 1.7491,18.1288 12.0272,18.1288 5.2585,0 8.6419,-2.4736 9.9185,-3.4409 z" />
    <path
       id="path36"
       style="fill:#dc2d35;fill-rule:evenodd"
       d="m 544.4692,374.8599 h 4.1153 v 5.568 h 0.1223 c 0.843,-1.9381 3.0183,-6.2276 9.6128,-6.2276 v 4.4081 c -6.5296,0 -9.7351,5.3882 -9.7351,13.124 v 11.9049 h -4.1153 z" />
    <path
       id="path38"
       style="fill:#dc2d35;fill-rule:evenodd"
       d="m 568.0492,361.9323 h 5.4382 v 5.4345 h -5.4382 z m 0.6633,12.9276 h 4.1116 v 28.7774 h -4.1116 z" />
    <path
       id="path40"
       style="fill:#dc2d35;fill-rule:evenodd"
       d="m 602.1425,399.8296 h -0.1223 c -0.7264,1.3915 -3.5613,4.4747 -8.8272,4.4747 -4.7175,0 -7.7359,-2.9016 -7.7359,-8.0397 0,-6.7093 8.7068,-8.9458 13.717,-8.9458 1.0339,0 1.8826,0 2.8461,-0.1816 0,-1.3896 0,-4.5359 -0.1779,-5.5031 -0.6633,-3.2055 -3.0906,-3.9893 -5.2604,-3.9893 -4.6526,0 -5.5661,2.3514 -5.8607,4.5952 h -4.5952 c 0.0575,-3.6316 2.4773,-8.0397 10.3355,-8.0397 8.9421,0 9.6703,5.618 9.6703,9.246 v 20.191 h -3.9893 z m -2.5404,-9.246 c -3.0202,0 -9.4294,1.2063 -9.4294,6.1053 0,2.7164 1.9345,4.169 4.0486,4.169 2.6034,0 5.5013,-1.6917 6.7149,-4.4729 0.7208,-1.6935 1.084,-2.355 1.084,-5.8014 z" />
    <path
       id="path42"
       style="fill:#dc2d35;fill-rule:evenodd"
       d="m 634.1809,404.0042 c -1.2062,0.1797 -2.4143,0.3001 -3.6261,0.3001 -5.8033,0 -7.9786,-2.2976 -7.9786,-7.4338 v -18.5623 h -4.7175 v -3.4483 h 4.7175 v -6.7056 l 4.1097,-2.5996 v 9.3052 h 7.7377 v 3.4483 h -7.7377 v 17.7174 c 0,1.8696 0.4855,4.8323 4.712,4.8323 1.3341,0 1.877,-0.2427 2.783,-0.5429 z" />
    <path
       id="path44"
       style="fill:#dc2d35;fill-rule:evenodd"
       d="m 645.2427,361.9323 h 5.4457 v 5.4345 h -5.4457 z m 0.6634,12.9276 h 4.1189 v 28.7774 h -4.1189 z" />
    <path
       id="path46"
       style="fill:#dc2d35;fill-rule:evenodd"
       d="m 660.5958,374.8599 h 4.4173 l 8.4641,22.7351 h 0.1148 l 7.3783,-22.7351 h 4.4191 l -9.7425,28.7774 h -4.169 z" />
    <path
       id="path48"
       style="fill:#dc2d35;fill-rule:evenodd"
       d="m 709.9255,399.8296 h -0.1149 c -0.7263,1.3915 -3.5742,4.4747 -8.8346,4.4747 -4.71,0 -7.7358,-2.9016 -7.7358,-8.0397 0,-6.7093 8.7067,-8.9458 13.7244,-8.9458 1.0339,0 1.8751,0 2.846,-0.1816 0,-1.3896 0,-4.5359 -0.1834,-5.5031 -0.6707,-3.2055 -3.0851,-3.9893 -5.2678,-3.9893 -4.6471,0 -5.5531,2.3514 -5.8588,4.5952 h -4.5971 c 0.0649,-3.6316 2.4773,-8.0397 10.341,-8.0397 8.9495,0 9.6777,5.618 9.6777,9.246 v 20.191 h -3.9967 z m -2.5403,-9.246 c -3.0258,0 -9.422,1.2063 -9.422,6.1053 0,2.7164 1.9289,4.169 4.0467,4.169 2.5997,0 5.4957,-1.6917 6.7038,-4.4729 0.7264,-1.6935 1.0969,-2.355 1.0969,-5.8014 z" />
  </g>
</svg>
